<svg width="75" height="75" viewBox="0 0 75 75" fill="none" xmlns="http://www.w3.org/2000/svg">
<g clip-path="url(#clip0_353_3796)">
<path d="M37.4338 -0.0248474C37.5775 -0.0246612 37.5775 -0.0246612 37.7241 -0.0244713C47.803 0.0036811 57.1447 4.12899 64.2608 11.2053C64.3761 11.3195 64.4914 11.4338 64.6102 11.5515C65.3954 12.342 66.1081 13.172 66.7988 14.0459C66.8946 14.1648 66.8946 14.1648 66.9924 14.286C73.2935 22.1134 75.7733 32.2329 74.7353 42.1378C73.6926 50.6345 69.5108 59.6671 62.8208 65.2451C62.5277 65.4916 62.2508 65.7528 61.9708 66.0142C59.7383 68.0253 57.1504 69.6352 54.4972 71.0247C54.4016 71.0749 54.3059 71.1251 54.2074 71.1768C50.286 73.2024 46.0266 74.3225 41.6666 74.8675C41.5559 74.8813 41.4453 74.8952 41.3313 74.9095C40.1217 75.0399 38.9053 75.0323 37.69 75.0331C37.5728 75.0332 37.4557 75.0333 37.3349 75.0334C35.3579 75.031 33.4351 74.9286 31.4814 74.6025C31.279 74.5694 31.279 74.5694 31.0726 74.5357C24.8075 73.4791 18.9508 70.7879 14.0211 66.7844C13.8333 66.6369 13.8333 66.6369 13.6418 66.4863C12.617 65.6543 11.6816 64.7339 10.7472 63.803C10.6825 63.7388 10.6177 63.6746 10.5509 63.6084C9.66264 62.726 8.83986 61.8091 8.06868 60.8216C7.96806 60.6928 7.96806 60.6928 7.86542 60.5615C1.59775 52.3993 -0.901592 42.3021 0.367783 32.1199C0.907355 28.2285 2.13343 24.467 3.83587 20.9364C3.88613 20.8321 3.93639 20.7277 3.98817 20.6203C5.1612 18.2193 6.64761 15.9838 8.33323 13.9134C8.38856 13.8445 8.44389 13.7757 8.5009 13.7047C10.1207 11.6988 11.9633 9.77183 14.0211 8.21555C14.1529 8.11084 14.2847 8.00613 14.4205 7.89825C16.2044 6.48441 18.0975 5.30723 20.1057 4.24028C20.1945 4.19279 20.2833 4.14531 20.3748 4.09638C25.6154 1.3153 31.5193 -0.0348333 37.4338 -0.0248474Z" fill="#FDFDFD"/>
<path d="M49.2064 5.83036C49.3386 5.96287 49.3386 5.96287 49.3537 6.46447C49.3536 6.68807 49.3529 6.91167 49.3516 7.13526C49.3513 7.31145 49.3513 7.31145 49.351 7.4912C49.3502 7.86791 49.3486 8.24462 49.3469 8.62133C49.3462 8.87608 49.3456 9.13083 49.3451 9.38558C49.3436 10.0115 49.3413 10.6373 49.3386 11.2632C49.4767 11.2512 49.6147 11.2391 49.7569 11.2267C50.2738 11.1818 50.7908 11.1375 51.3077 11.0934C51.5306 11.0743 51.7534 11.055 51.9762 11.0355C52.2983 11.0074 52.6205 10.98 52.9426 10.9527C53.0406 10.944 53.1387 10.9353 53.2396 10.9263C53.9255 10.869 54.6027 10.8585 55.291 10.8657C55.3183 15.0433 55.3183 15.0433 55.1587 16.6961C55.2368 16.6676 55.3148 16.6391 55.3951 16.6097C57.0811 15.9951 58.7704 15.3897 60.4648 14.7989C60.6526 14.7333 60.8403 14.6673 61.0278 14.6009C61.2929 14.5072 61.5585 14.4149 61.8242 14.3228C61.977 14.2694 62.1298 14.2159 62.2873 14.1608C62.6695 14.054 62.9662 14.0212 63.3598 14.0459C64.1427 15.6499 64.8847 17.2687 65.5919 18.9073C65.6467 19.0341 65.6467 19.0341 65.7026 19.1634C66.9312 22.009 66.9312 22.009 66.9312 22.394C64.1926 22.7166 61.4515 22.9968 58.7054 23.247C56.4249 23.4547 54.146 23.6723 51.8684 23.9095C49.2599 24.181 46.6495 24.4295 44.0382 24.6721C41.479 24.9098 38.9212 25.1584 36.3648 25.4244C34.1018 25.6594 31.8372 25.8725 29.5716 26.0795C27.3483 26.283 25.1271 26.5018 22.9064 26.7328C20.3093 27.0025 17.7099 27.2472 15.11 27.4884C12.6869 27.7133 10.265 27.9457 7.84577 28.2089C7.74999 28.2191 7.65421 28.2293 7.55553 28.2398C7.3065 28.2664 7.05753 28.2936 6.80856 28.3208C6.29941 28.3608 5.80155 28.3628 5.29102 28.3569C5.3709 27.5522 5.59972 26.8446 5.87799 26.0876C5.94826 25.8964 5.94826 25.8964 6.01995 25.7013C8.18717 19.9348 12.0979 14.3895 17.114 10.7562C17.3286 10.6003 17.5397 10.4405 17.7507 10.2798C26.5149 3.70121 38.9444 1.78941 49.2064 5.83036Z" fill="black"/>
<path d="M69.0475 49.6908C68.9689 50.4236 68.7127 51.0235 68.411 51.6868C68.3587 51.802 68.3064 51.9173 68.2525 52.036C64.5414 60.0388 57.7365 66.4734 49.4708 69.5672C47.3423 70.3359 45.225 70.9415 42.9893 71.2898C42.8253 71.3178 42.6613 71.3458 42.4923 71.3747C34.7064 72.6654 26.4959 70.8323 19.8412 66.652C19.6937 66.5594 19.5462 66.4668 19.3942 66.3714C18.3996 65.7245 17.4601 65.0078 16.5343 64.2668C16.4015 64.1612 16.2687 64.0557 16.1318 63.9469C14.1577 62.3278 12.3506 60.5019 10.8465 58.4364C10.7143 58.2588 10.5821 58.0812 10.4497 57.9038C9.23255 56.2638 9.23255 56.2638 8.99463 55.7862C9.03828 55.6551 9.08193 55.5239 9.1269 55.3887C10.2787 55.2693 11.4306 55.1507 12.5826 55.0326C12.7139 55.0191 12.7139 55.0191 12.8478 55.0054C15.4258 54.7413 18.0045 54.4895 20.5852 54.2541C22.963 54.0372 25.3386 53.8053 27.7134 53.5584C30.0009 53.321 32.2899 53.1051 34.5801 52.8959C36.7012 52.7018 38.8205 52.495 40.9391 52.2748C43.3594 52.0231 45.7812 51.7922 48.2045 51.5708C50.4571 51.3647 52.7077 51.1427 54.9576 50.9087C57.4793 50.6467 60.003 50.4098 62.5278 50.181C62.8118 50.1552 63.0959 50.1293 63.3799 50.1034C63.5154 50.091 63.6509 50.0787 63.7905 50.066C64.7157 49.9804 65.6393 49.8839 66.5617 49.7709C67.3931 49.6723 68.2112 49.6642 69.0475 49.6908Z" fill="#A3CC39"/>
<path d="M47.557 31.6657C47.6648 31.667 47.7726 31.6683 47.8836 31.6696C47.7121 33.1832 47.4809 34.6783 47.1975 36.1749C47.1773 36.2815 47.1572 36.3881 47.1365 36.4979C45.2905 46.1927 45.2905 46.1927 41.8403 48.5645C41.6533 48.6802 41.4629 48.7905 41.2699 48.8957C41.1485 48.9666 41.0271 49.0375 40.902 49.1105C40.0336 49.4832 38.8596 49.4833 37.9759 49.1473C37.3157 48.7357 36.9631 48.2715 36.6403 47.5707C36.5966 47.4832 36.553 47.3957 36.508 47.3056C36.4917 47.1018 36.4848 46.8972 36.4832 46.6928C36.4813 46.5845 36.4794 46.4762 36.4775 46.3646C36.5173 45.8627 36.6469 45.4081 36.7725 44.9205C35.6124 45.053 34.4522 45.1859 33.2921 45.3189C33.1053 45.3403 32.9185 45.3617 32.7316 45.3831C30.3294 45.6584 27.9273 45.935 25.5281 46.2366C25.2972 46.2654 25.2972 46.2654 25.0615 46.2947C24.9328 46.311 24.804 46.3273 24.6714 46.3441C24.3387 46.3781 24.3387 46.3781 23.8096 46.3781C24.006 45.591 24.006 45.591 24.2064 44.788C24.8666 44.5834 25.512 44.4533 26.1982 44.3675C26.3008 44.3541 26.4033 44.3407 26.509 44.3269C26.8473 44.2828 27.1857 44.2398 27.5241 44.1969C27.7641 44.1659 28.0041 44.1348 28.2441 44.1038C28.7489 44.0385 29.2539 43.9737 29.7588 43.9093C30.3916 43.8286 31.0243 43.7471 31.6569 43.6652C34.2777 43.3263 36.8991 42.9953 39.5249 42.6975C39.6959 42.6778 39.8669 42.6582 40.0431 42.638C40.1915 42.6212 40.34 42.6045 40.4929 42.5872C40.8597 42.5444 40.8597 42.5444 41.1585 42.4632C41.5459 42.3672 41.9313 42.3952 42.3281 42.4028C42.2648 42.6375 42.2014 42.8721 42.1379 43.1068C42.1026 43.2374 42.0674 43.3681 42.031 43.5027C41.9603 43.7564 41.8821 44.0081 41.799 44.2579C41.4228 44.3558 41.4228 44.3558 40.9392 44.4318C39.9081 44.633 39.1677 44.9639 38.4838 45.7735C38.3178 46.228 38.2988 46.5605 38.3598 47.0406C38.5472 47.3829 38.5472 47.3829 38.8889 47.5707C39.672 47.6913 40.2279 47.4583 40.8731 47.0406C41.2313 46.748 41.2313 46.748 41.5344 46.3781C41.5936 46.3109 41.6528 46.2438 41.7137 46.1747C43.0613 44.5279 44.4445 41.6195 44.4445 39.4876C44.3582 39.5882 44.2719 39.6888 44.183 39.7925C44.0663 39.9256 43.9496 40.0586 43.8327 40.1916C43.7192 40.3222 43.6056 40.4529 43.4886 40.5875C42.9637 41.0992 42.4592 41.4003 41.7163 41.3924C41.2149 41.3773 40.9923 41.2748 40.6085 40.9452C40.1942 40.8907 40.0081 40.9031 39.6604 41.1435C39.5722 41.2283 39.4841 41.3132 39.3932 41.4007C38.7643 41.997 38.3922 42.0574 37.5274 42.0529C37.1694 42.0053 37.1694 42.0053 36.756 41.6906C36.2933 41.0417 36.2896 40.537 36.3757 39.7526C36.6758 38.5678 37.1513 37.4491 37.6672 36.3443C37.8752 35.8912 37.963 35.6242 37.963 35.1148C36.7729 35.9872 36.1034 37.2935 35.4415 38.5849C35.3732 38.7169 35.3049 38.849 35.2344 38.985C34.7081 40.0162 34.2646 41.0524 33.8625 42.1378C32.9458 42.269 32.9458 42.269 32.0106 42.4028C31.967 42.2716 31.9233 42.1404 31.8784 42.0053C31.7692 42.09 31.6601 42.1747 31.5477 42.262C31.0385 42.5997 30.6366 42.6581 30.0265 42.6678C29.6143 42.4895 29.3981 42.3075 29.1006 41.9722C28.8559 41.7113 28.8559 41.7113 28.5301 41.7154C28.0757 41.9166 27.8281 42.2145 27.4895 42.5721C27.0078 43.0287 26.5159 43.1702 25.8598 43.2641C25.2698 43.1797 24.8794 42.9708 24.4709 42.5353C23.8575 41.5477 23.9619 40.3388 24.1361 39.2231C24.227 38.8583 24.3396 38.5148 24.4709 38.1625C24.5272 38.0108 24.5835 37.8592 24.6415 37.7029C25.2443 36.1914 26.0935 34.904 27.4998 34.0315C27.846 33.8954 28.1258 33.8871 28.4971 33.8891C28.6197 33.8884 28.7423 33.8877 28.8686 33.887C29.2556 33.9244 29.5365 34.0404 29.8942 34.1873C30.0688 34.1873 30.2434 34.1873 30.4233 34.1873C30.5583 34.0126 30.6905 33.8358 30.8202 33.6572C31.2089 33.5218 31.5685 33.5104 31.9776 33.5164C32.0833 33.5176 32.189 33.5188 32.2979 33.5201C32.3777 33.5216 32.4575 33.5231 32.5397 33.5247C32.4577 34.0124 32.3209 34.4296 32.1238 34.8824C32.0388 35.0803 32.0388 35.0803 31.9522 35.2821C31.8923 35.421 31.8325 35.5598 31.7709 35.7028C31.0519 37.4086 30.4314 38.926 30.5556 40.8127C31.2797 40.6942 31.5868 40.1784 32.0106 39.6201C32.6852 38.5725 33.2198 37.4651 33.7193 36.3265C33.8303 36.0735 33.9426 35.8211 34.0552 35.5688C34.4129 34.7634 34.7572 33.9576 35.053 33.1272C35.9696 32.996 35.9696 32.996 36.9048 32.8622C36.8612 33.1245 36.8175 33.3869 36.7725 33.6572C36.8447 33.5998 36.9168 33.5424 36.9911 33.4833C37.6216 33.0169 38.0909 32.7443 38.8869 32.8001C39.2948 32.8951 39.5318 33.0909 39.8149 33.3922C40.2007 34.1653 39.9521 35.0465 39.7031 35.8275C39.3479 36.8808 38.9474 37.9142 38.5185 38.9395C38.3799 39.3026 38.2885 39.6349 38.2276 40.0176C39.5069 39.074 40.198 37.4377 40.7575 35.9845C41.3346 34.4876 41.942 33.0273 43.3765 32.182C43.6861 32.0524 43.9116 32.0317 44.2461 32.034C44.3457 32.0333 44.4452 32.0326 44.5478 32.0319C44.873 32.0709 45.0817 32.1828 45.3704 32.3321C45.5014 32.3321 45.6323 32.3321 45.7672 32.3321C45.8027 32.2474 45.8382 32.1627 45.8747 32.0754C46.2137 31.4855 46.9584 31.6587 47.557 31.6657Z" fill="#040404"/>
<path d="M59.9206 30.7421C60.3826 31.2528 60.371 31.7634 60.3637 32.4204C60.2715 33.3007 59.9534 34.1259 59.6643 34.9575C59.5707 35.2323 59.4777 35.5074 59.3853 35.7826C59.3017 36.0307 59.2165 36.2783 59.1311 36.5258C59.004 36.9397 58.922 37.3367 58.8624 37.765C59.4504 37.4378 59.4504 37.4378 59.9206 36.97C59.9776 36.5992 59.9776 36.5992 59.9784 36.1915C60.0093 35.659 60.0279 35.421 60.3091 34.9575C60.6369 34.669 60.7843 34.5931 61.2185 34.5351C61.6402 34.5848 61.6402 34.5848 62.0204 34.8084C62.3461 35.317 62.3212 35.4952 62.2933 36.0838C62.2652 36.7204 62.2853 37.0678 62.6818 37.5746C62.7524 37.6513 62.823 37.728 62.8957 37.807C63.351 38.3162 63.4202 38.7739 63.3995 39.4385C63.3139 40.1144 63.077 40.605 62.5537 41.0462C61.7228 41.6191 60.9695 41.9014 59.9681 42.025C59.8694 42.0379 59.7707 42.0508 59.6689 42.0641C59.3451 42.1061 59.0211 42.1468 58.697 42.1875C58.4697 42.2167 58.2424 42.2459 58.0152 42.2752C56.1464 42.515 54.2762 42.7437 52.4055 42.967C51.7262 43.0483 51.0473 43.1319 50.3684 43.216C50.0673 43.2532 49.7662 43.2903 49.4651 43.3274C49.2726 43.3513 49.08 43.3752 48.8875 43.3993C48.6211 43.4326 48.3546 43.4654 48.0882 43.4981C47.8607 43.5264 47.8607 43.5264 47.6287 43.5552C47.269 43.5908 46.9219 43.6034 46.5608 43.5954C46.5986 43.4103 46.6374 43.2254 46.6765 43.0406C46.698 42.9376 46.7195 42.8346 46.7416 42.7284C46.8301 42.3842 46.9556 42.069 47.0899 41.7403C47.1664 41.7315 47.2428 41.7227 47.3216 41.7137C53.58 41.0284 53.58 41.0284 59.8214 40.2082C59.9192 40.1946 60.017 40.181 60.1177 40.1669C60.6576 40.0821 61.0745 39.9605 61.5079 39.6202C61.5851 39.217 61.5851 39.217 61.5079 38.8251C61.4206 38.7377 61.3333 38.6502 61.2433 38.5601C60.7878 38.605 60.5218 38.8223 60.1686 39.0984C59.5133 39.549 58.9789 39.6228 58.201 39.4877C57.7383 39.3101 57.5847 39.154 57.2999 38.7506C56.7669 37.2052 57.498 35.6206 57.9954 34.149C58.0257 34.0592 58.056 33.9694 58.0872 33.8768C58.1715 33.6298 58.2577 33.3834 58.3441 33.1371C58.4908 32.7159 58.4908 32.7159 58.4656 32.1997C58.16 32.2434 57.8544 32.2871 57.5396 32.3322C57.466 32.5618 57.466 32.5618 57.3908 32.796C57.3085 33.039 57.2258 33.2819 57.1428 33.5248C57.0881 33.6898 57.0333 33.8548 56.9769 34.0248C56.4096 35.679 55.6978 37.0443 54.1005 37.8976C54.0207 37.9332 53.9409 37.9688 53.8588 38.0055C53.1508 38.33 52.6816 38.7341 52.1577 39.3055C51.584 39.926 51.1791 40.3503 50.3063 40.4597C49.5218 40.4709 49.0084 40.4529 48.4126 39.8852C47.9439 39.1917 47.7884 38.689 47.8009 37.8561C47.802 37.753 47.8031 37.6499 47.8042 37.5436C47.8868 35.3541 48.9805 32.9398 50.4443 31.3275C51.0145 30.8338 51.548 30.8088 52.2807 30.8254C52.859 30.9034 53.1777 31.1181 53.5714 31.5371C54.0897 32.2971 54.1738 32.9786 54.1418 33.8809C54.1399 34.0455 54.1399 34.0455 54.1379 34.2134C54.1281 34.7493 54.0989 35.2549 53.9682 35.7774C54.0555 35.7774 54.1428 35.7774 54.2327 35.7774C54.2696 35.7033 54.3064 35.6291 54.3444 35.5528C54.448 35.3459 54.5527 35.1395 54.6585 34.9337C55.319 33.7575 55.319 33.7575 55.2909 32.4647C55.0727 32.421 54.8544 32.3772 54.6296 32.3322C54.7023 31.7248 54.8258 31.1863 55.0264 30.6096C58.997 30.0643 58.997 30.0643 59.9206 30.7421Z" fill="#050505"/>
<path d="M22.5199 30.0959C23.4086 30.7594 24.0251 31.6216 24.2064 32.7295C24.4127 34.9184 23.6614 36.7246 22.3545 38.4274C22.0444 38.7923 21.7283 39.1447 21.3955 39.489C21.1364 39.7494 21.1364 39.7494 21.0318 40.15C21.1463 40.1746 21.2609 40.1992 21.379 40.2245C22.2041 40.5766 22.7237 41.3371 23.0557 42.1593C23.4241 43.6563 23.2131 45.1607 22.4868 46.5104C21.3263 48.3782 19.8184 49.6482 17.7249 50.3532C17.4834 50.4351 17.4834 50.4351 17.2371 50.5188C15.7298 50.855 14.2576 50.6864 12.9263 49.9132C12.1291 49.3689 11.5804 48.6549 11.3757 47.703C11.2718 45.9813 11.3993 44.7042 12.3016 43.1977C13.0218 43.6568 13.0218 43.6568 13.7566 44.1252C13.5564 44.5587 13.5564 44.5587 13.3562 44.9922C13.0464 45.7763 13.0073 46.6047 13.0953 47.438C13.3828 48.0355 13.6893 48.3467 14.2857 48.6305C15.4217 48.9986 16.8335 48.8681 17.9161 48.408C19.4696 47.6037 20.6607 46.4384 21.2963 44.7878C21.5194 43.8495 21.5425 43.08 21.0659 42.2303C20.7433 41.7938 20.3718 41.6497 19.8475 41.5667C19.3801 41.5372 19.0654 41.6006 18.626 41.7732C17.899 42.4853 17.6693 43.4891 17.3596 44.4368C17.3188 44.5614 17.2781 44.6859 17.2361 44.8142C17.1549 45.0645 17.0753 45.3153 16.9971 45.5665C16.9601 45.6827 16.923 45.799 16.8847 45.9188C16.8522 46.0231 16.8197 46.1275 16.7862 46.2351C16.6543 46.539 16.5284 46.7025 16.2699 46.9079C15.8839 46.9757 15.8839 46.9757 15.4514 46.999C15.3077 47.0077 15.1639 47.0164 15.0158 47.0254C14.8509 47.0329 14.8509 47.0329 14.6826 47.0404C14.9299 46.1008 15.2023 45.175 15.5109 44.2538C15.552 44.13 15.5932 44.0061 15.6355 43.8785C15.7698 43.4746 15.9046 43.0708 16.0394 42.6671C16.1335 42.3846 16.2275 42.1022 16.3215 41.8197C16.5176 41.2305 16.7139 40.6415 16.9105 40.0525C17.1628 39.2965 17.4146 38.5403 17.6662 37.784C17.8599 37.2021 18.0537 36.6202 18.2477 36.0383C18.3406 35.7593 18.4336 35.4803 18.5264 35.2013C18.6557 34.813 18.7853 34.4248 18.9149 34.0367C18.9534 33.921 18.9919 33.8053 19.0315 33.686C19.0667 33.5808 19.102 33.4755 19.1383 33.367C19.1688 33.2753 19.1994 33.1836 19.2309 33.0892C19.3122 32.862 19.3122 32.862 19.4445 32.597C19.7536 32.5349 20.0658 32.4874 20.3787 32.4479C20.5493 32.4257 20.72 32.4035 20.8959 32.3806C21.028 32.3645 21.1602 32.3485 21.2963 32.332C21.1958 32.9352 21.0049 33.5023 20.8086 34.0794C20.7738 34.1828 20.7391 34.2862 20.7033 34.3927C20.5553 34.833 20.4064 35.2731 20.2576 35.7131C20.1488 36.0353 20.0405 36.3576 19.9322 36.6799C19.8986 36.7787 19.865 36.8776 19.8303 36.9794C19.6693 37.4588 19.5277 37.928 19.4445 38.4274C20.8268 37.9347 21.4066 36.7536 22.0021 35.4992C22.4295 34.5411 22.6639 33.6686 22.3297 32.6467C21.9599 31.9569 21.5213 31.4896 20.7775 31.2061C19.6332 30.9282 18.5197 31.1411 17.5218 31.7372C15.7332 32.9398 14.4222 34.6742 13.9375 36.8083C13.7847 37.9415 13.974 39.106 14.6412 40.0506C14.7422 40.1708 14.8431 40.2911 14.9471 40.415C14.4233 41.0053 14.4233 41.0053 13.8889 41.6076C12.8668 40.8694 12.4005 39.9272 12.1693 38.6924C11.9326 36.1531 12.7637 34.1825 14.3209 32.2191C16.3833 29.828 19.5748 28.2008 22.5199 30.0959Z" fill="#050505"/>
<path d="M28.9682 35.6451C29.2328 35.9101 29.2328 35.9101 29.3154 36.3987C29.2746 37.996 27.8213 39.7496 26.8518 40.9454C26.5661 41.198 26.5661 41.198 26.3227 41.343C26.0357 41.3101 25.8674 41.2844 25.6613 41.0779C25.4932 39.3263 26.3845 37.4758 27.4507 36.1265C27.9217 35.6032 28.289 35.406 28.9682 35.6451Z" fill="#F8F8F8"/>
<path d="M44.2626 33.7402C44.5767 33.7899 44.5767 33.7899 44.8413 34.0549C44.9871 35.7765 43.7087 37.6072 42.7249 38.9578C42.42 39.2839 42.42 39.2839 42.1958 39.4878C42.0648 39.4441 41.9339 39.4003 41.799 39.3553C41.7628 38.4832 41.8553 37.8065 42.1462 36.9867C42.1818 36.8834 42.2174 36.7801 42.2541 36.6737C43.2464 33.8857 43.2464 33.8857 44.2626 33.7402Z" fill="#F7F7F7"/>
<path d="M51.9924 32.4728C52.3329 32.6378 52.3764 32.7767 52.5133 33.1271C52.6207 34.093 52.5461 35.0291 52.1164 35.9098C52.0291 35.9972 51.9418 36.0847 51.8519 36.1748C51.5212 36.1665 51.5212 36.1665 51.1905 36.0423C50.797 35.2945 50.8578 34.4791 50.926 33.6571C51.3609 32.4536 51.3609 32.4536 51.9924 32.4728Z" fill="#F4F4F4"/>
<path d="M60.8467 29.6821C61.5014 29.6821 62.1562 29.6821 62.8308 29.6821C62.8745 29.9008 62.9181 30.1194 62.9631 30.3447C63.0067 30.3447 63.0504 30.3447 63.0954 30.3447C63.139 30.126 63.1827 29.9074 63.2276 29.6821C63.4459 29.6821 63.6641 29.6821 63.889 29.6821C63.889 30.2069 63.889 30.7316 63.889 31.2722C63.7581 31.2722 63.6271 31.2722 63.4922 31.2722C63.4485 31.0973 63.4049 30.9224 63.3599 30.7422C63.3163 30.9171 63.2726 31.092 63.2276 31.2722C63.0967 31.2722 62.9657 31.2722 62.8308 31.2722C62.7872 31.0973 62.7435 30.9224 62.6985 30.7422C62.6549 30.9171 62.6112 31.092 62.5663 31.2722C62.4353 31.2722 62.3044 31.2722 62.1694 31.2722C62.1694 30.835 62.1694 30.3977 62.1694 29.9471C61.9948 29.9471 61.8202 29.9471 61.6403 29.9471C61.6403 30.3844 61.6403 30.8217 61.6403 31.2722C61.5094 31.2722 61.3784 31.2722 61.2435 31.2722C61.2435 30.835 61.2435 30.3977 61.2435 29.9471C61.1126 29.9471 60.9816 29.9471 60.8467 29.9471C60.8467 29.8597 60.8467 29.7722 60.8467 29.6821Z" fill="#0A0A0A"/>
<path d="M49.6032 36.9697C50 36.9697 50 36.9697 50.2646 37.2182C50.3519 37.3111 50.4392 37.404 50.5291 37.4998C50.6601 37.5872 50.791 37.6747 50.926 37.7648C50.8826 38.1665 50.8411 38.3764 50.5622 38.6758C50.2646 38.8249 50.2646 38.8249 49.9091 38.8C49.6032 38.6923 49.6032 38.6923 49.4709 38.4273C49.4583 38.204 49.4538 37.9802 49.4544 37.7565C49.4541 37.6374 49.4537 37.5184 49.4534 37.3957C49.4709 37.1022 49.4709 37.1022 49.6032 36.9697Z" fill="#E9E9E9"/>
<path d="M60.8467 29.6821C61.3268 29.6821 61.807 29.6821 62.3017 29.6821C62.3017 30.2069 62.3017 30.7316 62.3017 31.2722C62.2581 31.2722 62.2144 31.2722 62.1694 31.2722C62.1694 30.835 62.1694 30.3977 62.1694 29.9471C61.9948 29.9471 61.8202 29.9471 61.6403 29.9471C61.6403 30.3844 61.6403 30.8217 61.6403 31.2722C61.5094 31.2722 61.3784 31.2722 61.2435 31.2722C61.2435 30.835 61.2435 30.3977 61.2435 29.9471C61.1126 29.9471 60.9816 29.9471 60.8467 29.9471C60.8467 29.8597 60.8467 29.7722 60.8467 29.6821Z" fill="#262626"/>
<path d="M63.2276 29.6821C63.4459 29.6821 63.6641 29.6821 63.889 29.6821C63.889 30.2069 63.889 30.7316 63.889 31.2722C63.7581 31.2722 63.6271 31.2722 63.4922 31.2722C63.1884 30.684 63.0686 30.3371 63.2276 29.6821Z" fill="#232323"/>
</g>
<defs>
<clipPath id="clip0_353_3796">
<rect width="75" height="75" fill="white"/>
</clipPath>
</defs>
</svg>
